# xmcd
# 
# Track frame offsets:
#     150
#     13755
#     31071
#     44915
#     60791
#     76581
#     93862
#     102234
#     117213
#     136278
#     154969
#     170672
#     188603
#     204105
#     222493
#     233536
#     249473
#     261548
#     270171
#     280616
#     296647
#     304412
# 
# Disc length: 4122
# 
# Revision: 0
# Processed by: cddbd v1.5.2PL0 Copyright (c) Steve Scherf et al.
# Submitted via: BonkEnc v1.0.8
# 
DISCID=2a101816
DTITLE=Maciej Malenczuk - Pan Malenczuk
DYEAR=1998
DGENRE=Acoustic
TTITLE0=Pan Malenczuk
TTITLE1=Czlowiek Z Wiekiem Do Trumny
TTITLE2=Edek Leszczyk
TTITLE3=Mani Mani
TTITLE4=Nobody
TTITLE5=Rebeka I Zenek
TTITLE6=Pierwszy Dzien W Pudle
TTITLE7=Recydywa I Ja
TTITLE8=Villon
TTITLE9=Syf
TTITLE10=Jozef Kania
TTITLE11=Nikt Z Nikad
TTITLE12=Zima Zima
TTITLE13=Mirek Jankowski
TTITLE14=Ach Prosze Pani
TTITLE15=Postacie
TTITLE16=Luty 1989
TTITLE17=Swieto Kobiet
TTITLE18=Armia
TTITLE19=Sierpien W Krakowie
TTITLE20=Soffe U
TTITLE21=W Tym Miescie Trudno Jest Zyc
EXTD=
EXTT0=
EXTT1=
EXTT2=
EXTT3=
EXTT4=
EXTT5=
EXTT6=
EXTT7=
EXTT8=
EXTT9=
EXTT10=
EXTT11=
EXTT12=
EXTT13=
EXTT14=
EXTT15=
EXTT16=
EXTT17=
EXTT18=
EXTT19=
EXTT20=
EXTT21=
PLAYORDER=
